<?xml version="1.0" encoding="UTF-8" standalone="no"?>
<svg
   width="37.5"
   height="30"
   viewBox="0 0 37.5 30"
   fill="none"
   version="1.1"
   id="svg6"
   sodipodi:docname="devto30.svg"
   inkscape:version="1.1.1 (c3084ef, 2021-09-22)"
   xmlns:inkscape="http://www.inkscape.org/namespaces/inkscape"
   xmlns:sodipodi="http://sodipodi.sourceforge.net/DTD/sodipodi-0.dtd"
   xmlns="http://www.w3.org/2000/svg"
   xmlns:svg="http://www.w3.org/2000/svg">
  <defs
     id="defs10" />
  <sodipodi:namedview
     id="namedview8"
     pagecolor="#ffffff"
     bordercolor="#666666"
     borderopacity="1.0"
     inkscape:pageshadow="2"
     inkscape:pageopacity="0.0"
     inkscape:pagecheckerboard="0"
     showgrid="false"
     showborder="false"
     fit-margin-top="0"
     fit-margin-left="0"
     fit-margin-right="0"
     fit-margin-bottom="0"
     inkscape:zoom="17.975"
     inkscape:cx="-8.2614743"
     inkscape:cy="21.335188"
     inkscape:window-width="1296"
     inkscape:window-height="969"
     inkscape:window-x="0"
     inkscape:window-y="25"
     inkscape:window-maximized="0"
     inkscape:current-layer="svg6" />
  <rect
     width="37.5"
     height="30"
     rx="2.25"
     style="fill:currentColor;stroke-width:0.75"
     id="rect2"
     x="0"
     y="0" />
  <path
     d="m 14.32425,17.631 c 0,0.9825 -0.31725,1.791 -0.9525,2.4255 C 12.74325,20.68575 11.91525,21 10.88775,21 H 7.5855 V 9.20775 h 3.369 c 0.9825,0 1.78875,0.31725 2.418,0.9525 0.6345,0.6285 0.95175,1.434 0.95175,2.41725 z m -2.106,0 v -5.0535 c 0,-0.4215 -0.14025,-0.73575 -0.4215,-0.9435 -0.2805,-0.21375 -0.561,-0.32025 -0.8415,-0.32025 H 9.6915 V 18.894 h 1.263 c 0.28125,0 0.5625,-0.1035 0.84225,-0.31125 0.28125,-0.21375 0.4215,-0.531 0.4215,-0.9525 z M 21.13875,21 h -4.422 c -0.4215,0 -0.7725,-0.14026 -1.053,-0.42075 -0.28125,-0.28125 -0.4215,-0.63225 -0.4215,-1.053 v -8.844 c 0,-0.4215 0.14025,-0.7725 0.4215,-1.053 0.2805,-0.28125 0.6315,-0.4215 1.053,-0.4215 h 4.422 v 2.106 H 17.3475 v 2.7375 h 2.316 v 2.106 h -2.316 v 2.7375 H 21.138 V 21 Z m 5.34,0 c -0.702,0 -1.263,-0.49125 -1.6845,-1.47375 l -2.7375,-10.3185 h 2.31675 l 2.10525,8.103 2.106,-8.103 H 30.9 l -2.7375,10.3185 C 27.7425,20.50875 27.18075,21 26.47875,21 Z"
     style="fill:#ffffff;stroke-width:0.75"
     id="path4" />
</svg>
