<?xml version="1.0" encoding="UTF-8" standalone="no"?>
<svg
   width="99.100723"
   height="25"
   viewBox="0 0 99.100721 25"
   fill="none"
   version="1.1"
   id="svg20"
   sodipodi:docname="mongodb25.svg"
   inkscape:version="1.1.1 (c3084ef, 2021-09-22)"
   xmlns:inkscape="http://www.inkscape.org/namespaces/inkscape"
   xmlns:sodipodi="http://sodipodi.sourceforge.net/DTD/sodipodi-0.dtd"
   xmlns="http://www.w3.org/2000/svg"
   xmlns:svg="http://www.w3.org/2000/svg">
  <defs
     id="defs24" />
  <sodipodi:namedview
     id="namedview22"
     pagecolor="#ffffff"
     bordercolor="#666666"
     borderopacity="1.0"
     inkscape:pageshadow="2"
     inkscape:pageopacity="0.0"
     inkscape:pagecheckerboard="0"
     showgrid="false"
     showborder="false"
     inkscape:zoom="1.022686"
     inkscape:cx="258.63265"
     inkscape:cy="150.58385"
     inkscape:window-width="1728"
     inkscape:window-height="1080"
     inkscape:window-x="1920"
     inkscape:window-y="37"
     inkscape:window-maximized="0"
     inkscape:current-layer="svg20"
     fit-margin-top="0"
     fit-margin-left="0"
     fit-margin-right="0"
     fit-margin-bottom="0" />
  <path
     d="M 7.4031393,2.5759352 C 6.4331575,1.4250809 5.5978877,0.25624549 5.4272493,0.01348659 c -0.017968,-0.01798212 -0.044919,-0.01798212 -0.062878,0 C 5.1937241,0.25624549 4.3584633,1.4250809 3.3884723,2.5759352 -4.9372201,13.194334 4.6997583,20.360252 4.6997583,20.360252 l 0.080827,0.05396 c 0.071843,1.105846 0.2514748,2.697302 0.2514748,2.697302 H 5.391314 5.7505676 c 0,0 0.1796313,-1.582464 0.2514838,-2.697302 l 0.080827,-0.06295 c 0.00897,0.009 9.6459896,-7.156925 1.3202606,-17.7753238 z M 5.391314,20.198381 c 0,0 -0.4310971,-0.368615 -0.5478597,-0.557374 v -0.01808 L 5.3643716,8.0604857 c 0,-0.035971 0.053894,-0.035971 0.053894,0 L 5.9391733,19.622931 v 0.01808 C 5.8224197,19.82977 5.3913136,20.198385 5.3913136,20.198385 Z"
     fill="#116149"
     id="path2"
     style="stroke-width:0.0899279" />
  <path
     d="m 23.42635,17.838939 -4.015827,-9.8082554 -0.009,-0.027086 h -3.124461 v 0.6592985 h 0.504227 c 0.153058,0 0.297123,0.063222 0.405215,0.1716007 0.108004,0.1083722 0.162051,0.2529136 0.162051,0.4064208 l -0.09002,9.8714934 c 0,0.307014 -0.252068,0.559892 -0.558273,0.568975 l -0.51322,0.009 v 0.650269 h 3.043435 v -0.650269 l -0.315197,-0.009 C 18.609174,19.6723 18.357015,19.419425 18.357015,19.112411 V 9.8098921 l 4.376079,10.5307549 c 0.06295,0.153508 0.207015,0.252878 0.369155,0.252878 0.16205,0 0.306115,-0.09937 0.369155,-0.252878 l 4.276978,-10.295953 0.06304,9.067716 c 0,0.316097 -0.252159,0.568975 -0.567266,0.577968 h -0.324191 v 0.650269 h 3.565647 v -0.650269 h -0.486241 c -0.306115,0 -0.558273,-0.261871 -0.567266,-0.568975 L 29.405129,9.24991 c 0,-0.31607 0.252068,-0.5689571 0.558273,-0.5779857 l 0.522212,-0.00903 V 8.0035971 h -3.043435 z"
     fill="#116149"
     id="path4"
     style="stroke-width:0.0899279" />
  <path
     d="m 51.427069,19.518525 c -0.09937,-0.09946 -0.153508,-0.235161 -0.153508,-0.398021 v -4.849281 c 0,-0.922752 -0.270773,-1.646583 -0.8125,-2.16223 -0.532554,-0.515737 -1.272842,-0.778058 -2.193615,-0.778058 -1.291007,0 -2.311061,0.524731 -3.02428,1.556116 -0.009,0.01807 -0.03607,0.02716 -0.06313,0.02716 -0.02716,0 -0.04514,-0.01816 -0.04514,-0.04524 l -0.334083,-1.293795 h -0.559712 l -1.435341,0.823292 v 0.452337 h 0.370143 c 0.171493,0 0.315918,0.04524 0.415288,0.135792 0.09928,0.09047 0.153417,0.226169 0.153417,0.416097 v 5.708723 c 0,0.16286 -0.05413,0.298561 -0.153417,0.398111 -0.09937,0.09946 -0.234712,0.153777 -0.397212,0.153777 h -0.361151 v 0.660432 h 3.304047 v -0.660432 h -0.361062 c -0.1625,0 -0.297931,-0.05431 -0.397212,-0.153777 -0.09928,-0.09955 -0.153507,-0.235251 -0.153507,-0.398111 v -3.781654 c 0,-0.479497 0.108364,-0.958993 0.307014,-1.429497 0.207555,-0.461331 0.514479,-0.85036 0.920774,-1.148921 0.406205,-0.298561 0.893705,-0.443345 1.453417,-0.443345 0.631924,0 1.110432,0.19901 1.408274,0.597122 0.297931,0.398111 0.451438,0.913759 0.451438,1.528957 v 4.668345 c 0,0.16277 -0.05423,0.298471 -0.153507,0.398022 -0.09928,0.09955 -0.234712,0.153777 -0.397212,0.153777 h -0.361061 v 0.660432 h 3.304047 v -0.660432 h -0.361062 c -0.135431,0.01816 -0.26187,-0.03615 -0.370143,-0.135702 z"
     fill="#116149"
     id="path6"
     style="stroke-width:0.0899279" />
  <path
     d="M 81.61385,8.7420771 C 80.700536,8.255755 79.679764,8.0035971 78.578414,8.0035971 H 74.280571 V 8.661025 h 0.420865 c 0.16115,0 0.304407,0.06305 0.447664,0.2071407 0.13435,0.1350714 0.205936,0.2882193 0.205936,0.4502693 v 9.690468 c 0,0.162051 -0.07159,0.315198 -0.205936,0.45027 -0.134264,0.135071 -0.286514,0.207104 -0.447664,0.207104 h -0.420865 v 0.657464 h 4.297843 c 1.10135,0 2.122122,-0.252158 3.035436,-0.738489 0.913214,-0.486331 1.656471,-1.206835 2.1937,-2.12536 0.537236,-0.918615 0.81475,-2.026349 0.81475,-3.28723 0,-1.260791 -0.277514,-2.359533 -0.81475,-3.287141 C 83.261329,9.9489207 82.527064,9.23741 81.61385,8.7420771 Z m 1.280393,5.4125989 c 0,1.152788 -0.205936,2.12536 -0.6089,2.908903 -0.402879,0.783543 -0.9402,1.368885 -1.602793,1.747212 -0.6625,0.378238 -1.396757,0.567356 -2.184707,0.567356 h -0.868529 c -0.16115,0 -0.304407,-0.06304 -0.447664,-0.207193 -0.13435,-0.135073 -0.205929,-0.28813 -0.205929,-0.45027 V 9.5796764 c 0,-0.1621407 0.06264,-0.306205 0.205929,-0.45036 0.134264,-0.1350721 0.286514,-0.2071135 0.447664,-0.2071135 h 0.868529 c 0.78795,0 1.522207,0.1891278 2.184707,0.5673657 0.662593,0.3782371 1.199914,0.9636684 1.602793,1.7471224 0.402964,0.792535 0.6089,1.77419 0.6089,2.917985 z"
     fill="#116149"
     id="path8"
     style="stroke-width:0.0899279" />
  <path
     d="m 94.781479,14.81214 c -0.397486,-0.459352 -1.164572,-0.846582 -2.06655,-1.053776 1.245507,-0.621403 1.885792,-1.494965 1.885792,-2.620684 0,-0.61241 -0.161871,-1.1617807 -0.487414,-1.6301257 C 93.788671,9.0392986 93.328236,8.661025 92.741907,8.3998471 92.154679,8.1386779 91.468529,8.0035971 90.69245,8.0035971 H 85.827514 V 8.661025 h 0.388129 c 0.162414,0 0.306836,0.06305 0.451264,0.2071407 0.135429,0.1350714 0.207643,0.2882193 0.207643,0.4502693 v 9.690468 c 0,0.162051 -0.07221,0.315198 -0.207643,0.45027 -0.135343,0.135071 -0.28885,0.207104 -0.451264,0.207104 h -0.424279 v 0.657464 h 5.280579 c 0.803057,0 1.552157,-0.135072 2.229314,-0.405306 0.677157,-0.270144 1.218529,-0.666366 1.607014,-1.188759 0.396586,-0.522302 0.595329,-1.16178 0.595329,-1.90027 -0.009,-0.792535 -0.243707,-1.467985 -0.722121,-2.017266 z m -6.056572,4.367806 c -0.135428,-0.135072 -0.207643,-0.28813 -0.207643,-0.45027 v -4.34991 h 2.509715 c 0.883992,0 1.56115,0.22518 2.030578,0.67545 0.469422,0.45036 0.704136,1.035701 0.704136,1.756205 0,0.432284 -0.108814,0.855575 -0.306657,1.242805 -0.207736,0.396313 -0.515286,0.711511 -0.929857,0.954677 -0.406472,0.243166 -0.911872,0.369244 -1.4982,0.369244 h -1.850815 c -0.162407,0 -0.306828,-0.06304 -0.451257,-0.198201 z M 88.52635,13.452159 V 9.5886693 c 0,-0.1621407 0.06314,-0.306205 0.20755,-0.45036 0.135436,-0.1350722 0.28885,-0.2071043 0.45135,-0.2071043 h 1.19155 c 0.857014,0 1.489207,0.2161871 1.886693,0.6303957 0.396578,0.4232914 0.595321,0.9636693 0.595321,1.6301253 0,0.684443 -0.18975,1.233813 -0.55935,1.648022 -0.370507,0.405306 -0.929857,0.612411 -1.669964,0.612411 z"
     fill="#116149"
     id="path10"
     style="stroke-width:0.0899279" />
  <path
     d="m 38.848831,11.905396 c -0.689748,-0.376979 -1.460072,-0.574461 -2.293075,-0.574461 -0.833004,0 -1.612321,0.188489 -2.293076,0.574461 -0.689747,0.376888 -1.23615,0.92437 -1.639208,1.615468 -0.403057,0.691097 -0.609083,1.49892 -0.609083,2.396402 0,0.897482 0.206026,1.705306 0.609083,2.396403 0.403058,0.691097 0.949461,1.238579 1.639208,1.615557 0.689748,0.376889 1.460072,0.574371 2.293076,0.574371 0.833003,0 1.61232,-0.188489 2.293075,-0.574371 0.689748,-0.376978 1.236151,-0.92446 1.639209,-1.615557 0.403057,-0.691097 0.609082,-1.498921 0.609082,-2.396403 0,-0.897482 -0.206025,-1.705305 -0.609082,-2.396402 -0.403058,-0.691098 -0.949461,-1.23858 -1.639209,-1.615468 z m 0.66286,4.01187 c 0,1.103957 -0.268705,2.001439 -0.806205,2.647662 -0.528417,0.646223 -1.253957,0.978328 -2.14973,0.978328 -0.895684,0 -1.621313,-0.332105 -2.149731,-0.978328 -0.5375,-0.646223 -0.806204,-1.543705 -0.806204,-2.647662 0,-1.103957 0.268704,-2.001439 0.806204,-2.647662 0.528418,-0.646223 1.254047,-0.978327 2.149731,-0.978327 0.895773,0 1.621313,0.332104 2.14973,0.978327 0.5375,0.646223 0.806205,1.543705 0.806205,2.647662 z"
     fill="#116149"
     id="path12"
     style="stroke-width:0.0899279" />
  <path
     d="m 70.593436,11.905396 c -0.689749,-0.376979 -1.460072,-0.574461 -2.293076,-0.574461 -0.833004,0 -1.61232,0.188489 -2.293076,0.574461 -0.689748,0.376888 -1.236151,0.92437 -1.639208,1.615468 -0.403058,0.691097 -0.609083,1.49892 -0.609083,2.396402 0,0.897482 0.206025,1.705306 0.609083,2.396403 0.403057,0.691097 0.94946,1.238579 1.639208,1.615557 0.689748,0.376889 1.460072,0.574371 2.293076,0.574371 0.833004,0 1.61232,-0.188489 2.293076,-0.574371 0.689748,-0.376978 1.23615,-0.92446 1.639207,-1.615557 0.403057,-0.691097 0.609086,-1.498921 0.609086,-2.396403 0,-0.897482 -0.206029,-1.705305 -0.609086,-2.396402 -0.403057,-0.691098 -0.958452,-1.23858 -1.639207,-1.615468 z m 0.662859,4.01187 c 0,1.103957 -0.268795,2.001439 -0.806205,2.647662 -0.528507,0.646223 -1.254046,0.978328 -2.14973,0.978328 -0.895774,0 -1.621313,-0.332105 -2.149731,-0.978328 -0.5375,-0.646223 -0.806205,-1.543705 -0.806205,-2.647662 0,-1.11295 0.268705,-2.001439 0.806205,-2.647662 0.528418,-0.646223 1.253957,-0.978327 2.149731,-0.978327 0.895684,0 1.621223,0.332104 2.14973,0.978327 0.528507,0.646223 0.806205,1.543705 0.806205,2.647662 z"
     fill="#116149"
     id="path14"
     style="stroke-width:0.0899279" />
  <path
     d="m 57.791367,11.330935 c -0.721763,0 -1.380216,0.153238 -1.975629,0.459802 -0.595414,0.306565 -1.064479,0.721403 -1.398292,1.253328 -0.333723,0.522931 -0.505126,1.109082 -0.505126,1.731205 0,0.558993 0.126259,1.072931 0.38786,1.532824 0.252608,0.441816 0.595414,0.81142 1.028417,1.117985 l -1.290018,1.749281 c -0.16241,0.216366 -0.180395,0.504856 -0.06313,0.739299 0.126258,0.243435 0.360791,0.387769 0.631474,0.387769 h 0.369874 c -0.360881,0.243436 -0.64955,0.531925 -0.848021,0.874551 -0.234532,0.38768 -0.351799,0.793435 -0.351799,1.208183 0,0.775449 0.342806,1.415647 1.019335,1.893525 C 55.463939,24.756565 56.402069,25 57.583813,25 c 0.820953,0 1.605756,-0.135251 2.318436,-0.396763 0.721672,-0.261421 1.308003,-0.649191 1.741007,-1.154046 0.442086,-0.504947 0.667625,-1.118076 0.667625,-1.821403 0,-0.739299 -0.270683,-1.26232 -0.902158,-1.767177 -0.541187,-0.42383 -1.389209,-0.64919 -2.444694,-0.64919 h -3.608363 c -0.009,0 -0.01808,-0.0091 -0.01808,-0.0091 0,0 -0.009,-0.01799 0,-0.02698 l 0.938219,-1.26232 c 0.252608,0.117176 0.487141,0.189298 0.694605,0.234353 0.216457,0.04514 0.460072,0.06313 0.730665,0.06313 0.757824,0 1.443435,-0.153237 2.03876,-0.459802 0.595413,-0.306564 1.07356,-0.721313 1.416366,-1.253327 0.342716,-0.522932 0.514119,-1.108993 0.514119,-1.731115 0,-0.667267 -0.32473,-1.884533 -1.208813,-2.506655 0,-0.009 0.0091,-0.009 0.0091,-0.009 l 1.939478,0.216367 v -0.892626 h -3.103238 c -0.48714,-0.153237 -0.992265,-0.243435 -1.515467,-0.243435 z m 1.082464,5.644335 c -0.342806,0.180306 -0.71268,0.279496 -1.082464,0.279496 -0.604406,0 -1.136691,-0.216367 -1.58777,-0.640107 -0.450989,-0.423832 -0.676528,-1.045954 -0.676528,-1.839389 0,-0.793436 0.225539,-1.415648 0.676528,-1.839389 0.451079,-0.423741 0.983364,-0.640197 1.58777,-0.640197 0.378867,0 0.739658,0.0902 1.082464,0.279496 0.342806,0.180396 0.622482,0.459892 0.848022,0.829586 0.216456,0.369695 0.333723,0.829497 0.333723,1.370504 0,0.55 -0.108274,1.009802 -0.333723,1.370504 -0.216547,0.369694 -0.505216,0.64919 -0.848022,0.829496 z m -2.444694,3.318075 h 2.444694 c 0.676619,0 1.109623,0.135252 1.398291,0.423831 0.288669,0.28849 0.433004,0.676169 0.433004,1.127068 0,0.658184 -0.261601,1.199191 -0.784802,1.604947 -0.523292,0.405755 -1.226889,0.613129 -2.092896,0.613129 -0.757824,0 -1.389299,-0.171313 -1.84937,-0.495953 -0.460072,-0.324551 -0.694604,-0.820503 -0.694604,-1.451618 0,-0.396763 0.108272,-0.766458 0.32482,-1.091008 0.216456,-0.32464 0.478057,-0.559082 0.820863,-0.730396 z"
     fill="#116149"
     id="path16"
     style="stroke-width:0.0899279" />
  <path
     d="m 97.333636,20.173291 c -0.178057,-0.09739 -0.31205,-0.239028 -0.419065,-0.407194 -0.09802,-0.176978 -0.151978,-0.36286 -0.151978,-0.566457 0,-0.203597 0.05393,-0.398291 0.151978,-0.566456 0.09802,-0.177069 0.241008,-0.309803 0.419065,-0.407195 0.178957,-0.0973 0.375,-0.15045 0.598021,-0.15045 0.223022,0 0.419064,0.05315 0.598022,0.15045 0.178057,0.09739 0.31205,0.239029 0.419064,0.407195 0.09802,0.176978 0.151978,0.362859 0.151978,0.566456 0,0.203597 -0.05393,0.398291 -0.151978,0.566457 -0.09802,0.177069 -0.241007,0.309802 -0.419064,0.407194 -0.178958,0.0973 -0.375,0.15045 -0.598022,0.15045 -0.214028,0 -0.419064,-0.04424 -0.598021,-0.15045 z m 1.098021,-0.12392 c 0.151079,-0.07968 0.258993,-0.203597 0.348022,-0.345235 0.08003,-0.150449 0.125,-0.318615 0.125,-0.504496 0,-0.185881 -0.045,-0.354046 -0.125,-0.504496 -0.08094,-0.15045 -0.196943,-0.265558 -0.348022,-0.345234 -0.151978,-0.07968 -0.31295,-0.123921 -0.5,-0.123921 -0.18705,0 -0.348021,0.04424 -0.5,0.123921 -0.151078,0.07968 -0.258993,0.203597 -0.348021,0.345234 -0.08004,0.15045 -0.125,0.318615 -0.125,0.504496 0,0.185881 0.045,0.354047 0.125,0.504496 0.08093,0.15045 0.196943,0.265558 0.348021,0.345235 0.151979,0.07967 0.31295,0.12392 0.5,0.12392 0.18705,0 0.357014,-0.04424 0.5,-0.12392 z m -0.982014,-0.309802 v -0.07968 l 0.018,-0.0088 h 0.05393 c 0.01707,0 0.03507,-0.0089 0.04407,-0.01771 0.018,-0.01771 0.018,-0.02653 0.018,-0.04424 v -0.823202 c 0,-0.01771 -0.009,-0.03534 -0.018,-0.04424 -0.018,-0.01771 -0.027,-0.01771 -0.04407,-0.01771 h -0.05393 l -0.018,-0.0088 v -0.07968 l 0.018,-0.0088 h 0.464028 c 0.133993,0 0.232015,0.02653 0.31205,0.08849 0.08094,0.06196 0.116008,0.141638 0.116008,0.247843 0,0.07968 -0.02607,0.159262 -0.08903,0.21241 -0.06207,0.06196 -0.133993,0.09739 -0.223021,0.106205 l 0.107014,0.03543 0.205036,0.327429 c 0.018,0.02662 0.036,0.03543 0.06293,0.03543 h 0.05307 l 0.009,0.0089 v 0.07959 l -0.009,0.0089 H 98.19965 l -0.018,-0.0089 -0.285971,-0.477968 h -0.07107 v 0.318705 c 0,0.01771 0.009,0.03534 0.018,0.04424 0.018,0.01771 0.027,0.01771 0.04407,0.01771 h 0.05393 l 0.018,0.0088 v 0.07968 l -0.018,0.0088 h -0.473021 z m 0.455036,-0.584173 c 0.07194,0 0.133992,-0.01771 0.169964,-0.06197 0.03507,-0.03543 0.06207,-0.09739 0.06207,-0.168165 0,-0.07086 -0.018,-0.12392 -0.05307,-0.168165 -0.036,-0.04424 -0.08993,-0.06196 -0.151979,-0.06196 h -0.036 c -0.018,0 -0.03507,0.0088 -0.04407,0.01771 -0.018,0.01763 -0.018,0.02653 -0.018,0.04424 v 0.398291 z"
     fill="#116149"
     id="path18"
     style="stroke-width:0.0899279" />
</svg>
