<?xml version="1.0" encoding="UTF-8" standalone="no"?>
<!-- Created with Inkscape (http://www.inkscape.org/) -->

<svg width="8.7821903mm" height="14mm" viewBox="0 0 8.7821901 14" version="1.1" id="svg5"
   inkscape:version="1.1.1 (c3084ef, 2021-09-22)" sodipodi:docname="snyk14.svg"
   xmlns:inkscape="http://www.inkscape.org/namespaces/inkscape"
   xmlns:sodipodi="http://sodipodi.sourceforge.net/DTD/sodipodi-0.dtd" xmlns="http://www.w3.org/2000/svg"
   xmlns:svg="http://www.w3.org/2000/svg">
   <sodipodi:namedview id="namedview7" pagecolor="#ffffff" bordercolor="#666666" borderopacity="1.0"
      inkscape:pageshadow="2" inkscape:pageopacity="0.0" inkscape:pagecheckerboard="0" inkscape:document-units="mm"
      showgrid="false" showborder="false" fit-margin-top="0" fit-margin-left="0" fit-margin-right="0"
      fit-margin-bottom="0" inkscape:zoom="0.64052329" inkscape:cx="-522.22925" inkscape:cy="323.17326"
      inkscape:window-width="1728" inkscape:window-height="1080" inkscape:window-x="1920" inkscape:window-y="37"
      inkscape:window-maximized="0" inkscape:current-layer="layer1" />
   <defs id="defs2" />
   <g inkscape:label="Layer 1" inkscape:groupmode="layer" id="layer1" transform="translate(3.8778583,-72.872714)">
      <g fill="none" fill-rule="evenodd" id="g61" transform="matrix(0.03780994,0,0,0.03780994,-4.1803378,72.608044)">
         <path
            d="m 175.776,276.307 -2.045,1.483 -0.276,-2.548 c -0.759,3.418 -1.702,6.823 -2.878,10.018 -2.699,7.338 -7.468,12.898 -13.568,16.192 -0.358,17.59 -16.722,27.081 -32.14,27.081 -15.546,0 -32.048,-9.482 -32.411,-27.067 -6.113,-3.3 -10.888,-8.86 -13.59,-16.206 -1.396,-3.799 -2.468,-7.886 -3.292,-11.945 l -0.529,4.89 -1.312,-0.919 -5.268,48.611 -11.781,-8.232 8.557,-78.985 c -6.353,-8.253 -13.864,-18.55 -15.816,-23.538 -3.132,-7.975 0.855,-48.784 2.944,-67.57 L 39.309,113.115 v -1.122 c 0,-16.86 22.168,-59.996 29.637,-74.071 A 557.786,557.786 0 0 1 77.329,21.734 L 85.422,7 c 0,0 7.392,51.206 7.386,51.252 l 3.986,27.663 3.703,30.45 c 4.494,-1.438 10.91,-3.141 17.82,-3.854 1.823,-4.407 3.8,-7.33 5.97,-7.33 4.104,0 8.195,3.831 11.903,8.044 4.353,0.75 8.338,1.794 11.533,2.767 L 151.866,85.916 163.219,7 l 5.805,10.792 0.088,-0.608 9.047,16.772 c 3.234,5.974 31.532,58.91 31.532,78.037 h -0.002 v 1.12 l -12.829,34.461 c 2.086,18.784 6.234,59.599 3.103,67.573 -1.934,4.932 -9.303,15.079 -15.607,23.295 l 8.536,78.458 -11.781,8.524 z"
            fill="#ffffff" id="path9" />
         <path
            d="M 240.272,295.171 124.135,377.273 8,295.17 V 103.72 c 0,0 42.942,-15.974 116.293,-15.974 73.35,0 115.979,15.973 115.979,15.973 z"
            fill="#ffffff" id="path11" />
         <path
            d="m 174.312,244.21 h -50.078 v -83.718 l -50.812,81.271 -7.9,83.454 57.93,41.312 0.782,0.56 59.244,-42.17 z"
            fill="#3b3b63" id="path13" />
         <path
            d="M 123.043,365.633 15.281,289.308 V 111.326 c 0,0 39.846,-14.85 107.908,-14.85 68.063,0 107.617,14.85 107.617,14.85 v 177.982 z"
            fill="#dbdbdb" id="path15" />
         <path
            d="m 124.648,96.476 -0.148,0.002 v 269.155 h 0.002 l 107.76,-76.326 v -177.98 c 0,0 -39.553,-14.85 -107.614,-14.85 z"
            fill="#c6c6c6" id="path17" />
         <path d="m 182.75,324.849 -9.11,-80.7 h -49.868 v 122.94 z" fill="#3b3b63" id="path19" />
         <path d="M 65.522,325.217 124.5,367.088 V 160.492 l -51.042,81.271 z" fill="#53537a" id="path21" />
         <path d="m 149.256,300.89 c 0,13.618 -13.032,20.369 -24.988,20.369 -11.956,0 -25.252,-6.751 -25.252,-20.369"
            fill="#bc9375" id="path23" />
         <path d="m 141.975,293.616 c 0,16.062 -8.833,20.368 -17.838,20.368 -9.005,0 -17.84,-4.306 -17.84,-20.368"
            fill="#083251" id="path25" />
         <path
            d="m 124.137,308.165 c -9.554,0 -14.2,-6.904 -14.2,-21.096 h 4.556 c 0,16.615 6.512,16.615 9.644,16.615 3.13,0 9.644,0 9.644,-16.615 h 4.553 c 0,14.192 -4.645,21.096 -14.197,21.096 z"
            fill="#ffffff" id="path27" />
         <path
            d="m 200.225,122.333 c 0,-17.464 -29.795,-72.413 -29.795,-72.413 l -10.08,69.687 -9.046,14.712 -27.112,1.092 -0.107,0.216 v -0.216 L 96.968,134.319 87.925,119.607 77.845,49.92 c 0,0 -29.798,54.949 -29.798,72.413 l 12.589,33.557 c 0,0 -6.353,56.366 -3.453,63.746 2.892,7.381 22.977,32.064 22.977,32.064 0,0 -0.06,20.75 5.439,35.67 3.923,10.653 12.568,14.974 20.845,14.974 12.677,0 17.638,-11.521 17.638,-11.521 0,0 5.079,11.521 17.757,11.521 8.275,0 16.91,-4.314 20.843,-14.975 5.493,-14.912 5.438,-35.67 5.438,-35.67 0,0 20.08,-24.683 22.977,-32.064 2.9,-7.382 -3.455,-63.746 -3.455,-63.746 z"
            fill="#c49a7e" id="path29" />
         <path
            d="m 123.77,135.521 -0.051,0.105 v -0.215 l -26.987,-1.092 -9,-14.712 L 77.7,49.92 c 0,0 -29.652,54.949 -29.652,72.413 l 12.525,33.557 c 0,0 -6.32,56.366 -3.438,63.746 2.883,7.381 22.864,32.065 22.864,32.065 0,0 -0.052,20.75 5.414,35.67 3.91,10.653 12.513,14.974 20.743,14.974 12.624,0 17.56,-11.521 17.56,-11.521 0,0 0.023,0.04 0.057,0.116 V 135.52 Z"
            fill="#d8b7a0" id="path31" />
         <path
            d="m 187.874,158.407 c -2.304,-4.785 0.972,-16.108 0.972,-16.108 -18.773,-19.096 -23.468,-58.917 -23.468,-58.917 -3.505,12.548 -11.123,49.543 -11.123,49.543 0,0 -14.01,-5.178 -29.949,-5.203 h -0.119 a 96.97,96.97 0 0 0 -2.6,0.055 v 156.107 l 1.19,1.73 v -0.855 h 0.737 v 0.855 l 0.007,-0.855 h 1.453 v 0.855 -0.855 h 0.743 v 0.855 l 12.977,-18.805 2.82,-52.805 16.157,18.289 20.813,6.034 c 0,0 7.787,-5.51 7.787,-5.489 3.306,-4.594 4.403,-8.508 5.203,-10.538 2.89,-7.389 -3.6,-63.893 -3.6,-63.893 z"
            fill="#3b3b63" id="path33" />
         <path
            d="m 94.602,132.927 c 0,0 -7.593,-36.995 -11.082,-49.545 0,0 -4.674,39.822 -23.379,58.92 0,0 3.264,11.323 0.969,16.108 0,0 -6.466,56.508 -3.587,63.885 0.796,2.032 1.897,5.944 5.186,10.539 0,-0.02 7.763,5.49 7.763,5.49 l 20.73,-6.036 16.092,-18.286 2.818,52.806 12.92,18.806 v -0.855 h 0.74 v 0.855 -0.855 h 0.727 V 127.725 c -15.938,0.027 -29.897,5.202 -29.897,5.202 z"
            fill="#53537a" id="path35" />
         <path
            d="m 162.016,193.955 h -24.41 v 0.25 c 0,8.302 7.371,15.026 16.018,15.026 8.649,0 16.02,-6.726 16.02,-15.025 v -0.251 z"
            fill="#333152" id="path37" />
         <path d="m 143.431,193.955 v 0.258 c 0,5.081 4.058,9.199 9.103,9.199 5.044,0 9.1,-4.118 9.1,-9.199 v -0.258 z"
            fill="#ffffff" id="path39" />
         <path
            d="m 155.358,193.955 h -4.286 c -0.042,0 -0.078,0.02 -0.115,0.028 0.532,0.109 0.826,1.29 0.712,2.077 -0.172,1.201 -1.216,2.036 -2.413,2.056 0.348,1.57 1.655,2.834 3.39,3.073 2.218,0.308 4.267,-1.183 4.58,-3.354 0.227,-1.599 -0.557,-3.88 -1.868,-3.88 z m -51.594,0 H 79.356 v 0.25 c 0,8.302 7.372,15.026 16.017,15.026 8.649,0 16.02,-6.726 16.02,-15.025 v -0.251 z"
            fill="#333152" id="path41" />
         <path d="m 85.181,193.955 v 0.258 c 0,5.081 4.062,9.199 9.1,9.199 5.046,0 9.103,-4.118 9.103,-9.199 v -0.258 z"
            fill="#ffffff" id="path43" />
         <path
            d="m 97.112,193.955 h -4.29 c -0.038,0 -0.078,0.02 -0.112,0.028 0.53,0.109 0.823,1.29 0.711,2.077 -0.172,1.201 -1.211,2.036 -2.415,2.056 0.353,1.57 1.66,2.834 3.391,3.073 2.216,0.308 4.27,-1.183 4.579,-3.354 0.23,-1.599 -0.554,-3.88 -1.864,-3.88 z"
            fill="#333152" id="path45" />
         <path d="m 160.44,186.68 c 1.03,-1.114 9.775,-10.911 -1.92,-10.911 -10.567,0 -18.17,8.42 -20.186,10.911 z"
            fill="#c49a7e" id="path47" />
         <path d="m 110.666,186.68 c -2.014,-2.492 -9.618,-10.911 -20.19,-10.911 -11.69,0 -2.945,9.797 -1.92,10.911 z"
            fill="#d8b7a0" id="path49" />
         <path d="m 73.531,189.59 h 44.416 v 4.365 H 73.53 Z" fill="#53537a" id="path51" />
         <path
            d="m 206.05,121.764 c 0,-18.456 -27.21,-69.537 -30.319,-75.301 l -8.699,-16.185 -12.461,86.683 -5.752,9.415 c -5.553,-1.853 -15.003,-4.44 -24.518,-4.44 -9.505,0 -18.891,2.578 -24.42,4.434 l -5.755,-9.411 -4.374,-30.385 c 0.006,-0.05 0.013,-0.118 0.013,-0.149 L 89.731,86.421 81.645,30.278 72.763,46.463 c -3.114,5.764 -30.541,56.845 -30.541,75.3 v 1.084 l 12.559,33.249 c -2.009,18.129 -5.842,57.507 -2.83,65.203 1.876,4.812 9.098,14.749 15.207,22.713 l -8.228,76.217 11.328,7.943 5.987,-55.443 c 0.86,5.392 2.13,11.086 4.014,16.23 2.598,7.088 7.19,12.453 13.067,15.638 0.35,16.968 16.216,26.119 31.165,26.119 14.825,0 30.56,-9.158 30.903,-26.133 5.866,-3.178 10.452,-8.544 13.047,-15.624 1.962,-5.35 3.25,-11.307 4.106,-16.887 l 6.022,55.644 11.329,-8.226 -8.208,-75.708 c 6.061,-7.929 13.147,-17.72 15.006,-22.479 3.012,-7.694 -0.977,-47.078 -2.983,-65.204 l 12.336,-33.253 v -1.082 z M 54.6,120.41 c 0.68,-9.524 10.594,-32.345 20.051,-51.578 l 2.52,17.585 c -0.96,6.575 -5.354,32.36 -17.14,48.613 z m 70.023,197.938 c -6.602,0 -15.99,-2.92 -18.326,-10.66 0.24,0.007 0.474,0.028 0.718,0.028 a 25.7,25.7 0 0 0 3.628,-0.28 c 3.349,4.625 8.565,6.044 13.851,6.044 5.295,0 10.521,-1.406 13.876,-6.038 1.149,0.156 2.332,0.274 3.598,0.274 0.248,0 0.487,-0.02 0.735,-0.028 -2.312,7.74 -11.575,10.66 -18.08,10.66 z m -8.132,-12.652 a 23.93,23.93 0 0 0 4.433,-2.624 c 1.195,0.36 2.342,0.36 3.222,0.36 0.875,0 2.01,0.007 3.196,-0.353 a 24.499,24.499 0 0 0 4.44,2.617 c -2.06,1.58 -4.598,2.468 -7.63,2.468 -3.05,0 -5.599,-0.882 -7.661,-2.468 z m 68.782,-88.857 c -1.762,4.491 -13.922,20.539 -22,30.503 l -1.348,1.67 0.006,2.132 c 0,0.193 -0.006,19.863 -5.06,33.629 -3.653,9.949 -11.768,11.024 -15.084,11.024 -8.394,0 -12.017,-7.638 -12.144,-7.913 l -0.48,-7.155 H 118.96 l -0.46,7.113 c -0.146,0.325 -3.68,7.936 -12.032,7.936 -3.323,0 -11.435,-1.064 -15.092,-11.013 -5.037,-13.717 -5.061,-33.428 -5.061,-33.629 l 0.007,-2.131 -1.347,-1.663 c -8.074,-9.957 -20.236,-26.004 -21.953,-30.387 -1.373,-4.74 0.893,-35.395 3.778,-61.082 l 0.16,-1.426 -2.277,-6.082 c 7.82,-8.14 13.31,-19.34 17.095,-30.002 l 0.368,2.595 12.422,20.26 4.853,-2.067 c 0.122,-0.052 12.568,-5.308 24.653,-5.308 12.008,0 24.658,5.26 24.777,5.312 l 4.846,2.05 12.407,-20.251 0.487,-3.382 c 3.745,10.766 9.228,22.168 17.086,30.488 l -2.383,6.383 0.158,1.424 c 2.884,25.693 5.15,56.348 3.822,60.972 z m 3.05,-81.809 C 175.478,117.044 171.449,87.804 171.1,85.132 l 2.343,-16.3 c 9.537,19.333 19.543,42.275 20.229,51.85 z"
            fill="#333152" id="path53" />
         <path
            d="m 138.93,260.153 h -28.765 c 0,0 -3.868,6.661 -3.868,8.822 0,6.42 17.705,16.639 17.705,16.639 0,0 18.701,-10.524 18.701,-16.639 0,-2.916 -3.772,-8.822 -3.772,-8.822 z"
            fill="#333152" id="path55" />
         <path
            d="m 133.079,280.015 c -1.556,-2.705 -3.564,-3.199 -4.486,-1.113 -0.918,2.088 -0.393,5.973 1.163,8.672 1.555,2.707 3.565,3.2 4.482,1.113 0.922,-2.086 0.4,-5.972 -1.16,-8.672 z"
            fill="#c49a7e" id="path57" />
         <path
            d="m 115.92,280.015 c -1.56,2.7 -2.078,6.586 -1.16,8.672 0.919,2.087 2.925,1.594 4.488,-1.113 1.556,-2.698 2.077,-6.584 1.155,-8.672 -0.917,-2.086 -2.924,-1.592 -4.483,1.113 z"
            fill="#d8b7a0" id="path59" />
      </g>
   </g>
</svg>